<svg width="40" height="40" viewBox="0 0 40 40" fill="none" xmlns="http://www.w3.org/2000/svg">
<rect width="40" height="40" rx="5" fill="#F8F8F8"/>
<path fill-rule="evenodd" clip-rule="evenodd" d="M26.7789 13.2097C26.4996 12.9301 26.0467 12.9301 25.7674 13.2097L25.1434 13.8343C24.3457 13.4529 23.3615 13.5928 22.7008 14.2541L15.114 21.8483L19.1603 25.8985L26.7471 18.3044C27.4077 17.6431 27.5475 16.6578 27.1665 15.8594L27.7905 15.2348C28.0698 14.9552 28.0698 14.5019 27.7905 14.2223L26.7789 13.2097ZM23.7261 19.3032L19.1603 23.8734L17.1372 21.8483L21.7029 17.2781L23.7261 19.3032ZM25.0267 18.0013L25.7355 17.2918C26.0148 17.0122 26.0148 16.5589 25.7355 16.2793L24.7239 15.2667C24.4446 14.9871 23.9917 14.9871 23.7124 15.2667L23.0035 15.9762L25.0267 18.0013Z" fill="#6F6F6F"/>
<path d="M13 28L14.5176 22.4307L18.5636 26.4812L13 28Z" fill="#6F6F6F"/>
</svg>
