<svg width="20" height="20" viewBox="0 0 20 20" fill="none" xmlns="http://www.w3.org/2000/svg">
<mask id="path-1-inside-1" fill="white">
<path d="M19.8779 18.6996L14.0681 12.8897C15.17 11.5293 15.8334 9.79975 15.8334 7.9167C15.8334 3.55145 12.2819 0 7.91666 0C3.55141 0 0 3.55145 0 7.9167C0 12.2819 3.55145 15.8334 7.9167 15.8334C9.79975 15.8334 11.5293 15.17 12.8897 14.0681L18.6996 19.878C18.8623 20.0407 19.1261 20.0407 19.2889 19.878L19.878 19.2888C20.0407 19.1261 20.0407 18.8623 19.8779 18.6996ZM7.9167 14.1667C4.47024 14.1667 1.66668 11.3631 1.66668 7.9167C1.66668 4.47024 4.47024 1.66668 7.9167 1.66668C11.3631 1.66668 14.1667 4.47024 14.1667 7.9167C14.1667 11.3631 11.3631 14.1667 7.9167 14.1667Z"/>
</mask>
<path d="M19.8779 18.6996L14.0681 12.8897C15.17 11.5293 15.8334 9.79975 15.8334 7.9167C15.8334 3.55145 12.2819 0 7.91666 0C3.55141 0 0 3.55145 0 7.9167C0 12.2819 3.55145 15.8334 7.9167 15.8334C9.79975 15.8334 11.5293 15.17 12.8897 14.0681L18.6996 19.878C18.8623 20.0407 19.1261 20.0407 19.2889 19.878L19.878 19.2888C20.0407 19.1261 20.0407 18.8623 19.8779 18.6996ZM7.9167 14.1667C4.47024 14.1667 1.66668 11.3631 1.66668 7.9167C1.66668 4.47024 4.47024 1.66668 7.9167 1.66668C11.3631 1.66668 14.1667 4.47024 14.1667 7.9167C14.1667 11.3631 11.3631 14.1667 7.9167 14.1667Z" fill="black"/>
<path d="M19.8779 18.6996L4.32158 34.2559L4.32345 34.2578L19.8779 18.6996ZM14.0681 12.8897L-3.0273 -0.957602L-15.4971 14.4372L-1.48828 28.4461L14.0681 12.8897ZM12.8897 14.0681L28.4461 -1.48823L14.4374 -15.4969L-0.957309 -3.0275L12.8897 14.0681ZM18.6996 19.878L3.14322 35.4343L3.14695 35.4381L18.6996 19.878ZM19.2889 19.878L34.8415 35.4381L34.8457 35.4338L19.2889 19.878ZM19.878 19.2888L35.4348 34.8447L35.4362 34.8433L19.878 19.2888ZM35.4343 3.14322L29.6244 -2.66663L-1.48828 28.4461L4.32158 34.2559L35.4343 3.14322ZM31.1634 26.737C35.2957 21.6355 37.8334 15.0635 37.8334 7.9167H-6.16665C-6.16665 4.53598 -4.95567 1.42308 -3.0273 -0.957602L31.1634 26.737ZM37.8334 7.9167C37.8334 -8.59881 24.4322 -22 7.91666 -22V22C0.131632 22 -6.16665 15.7017 -6.16665 7.9167H37.8334ZM7.91666 -22C-8.599 -22 -22 -8.59867 -22 7.9167H22C22 15.7016 15.7018 22 7.91666 22V-22ZM-22 7.9167C-22 24.4322 -8.59881 37.8334 7.9167 37.8334V-6.16661C15.7017 -6.16661 22 0.131676 22 7.9167H-22ZM7.9167 37.8334C15.0638 37.8334 21.6356 35.2955 26.7367 31.1637L-0.957309 -3.0275C1.42299 -4.95548 4.53569 -6.16661 7.9167 -6.16661V37.8334ZM-2.66664 29.6245L3.14322 35.4343L34.2559 4.32162L28.4461 -1.48823L-2.66664 29.6245ZM3.14695 35.4381C11.9004 44.1873 26.088 44.1873 34.8415 35.4381L3.73625 4.31789C12.1642 -4.10597 25.8243 -4.10597 34.2522 4.31789L3.14695 35.4381ZM34.8457 35.4338L35.4348 34.8447L4.3211 3.733L3.732 4.32214L34.8457 35.4338ZM35.4362 34.8433C44.1872 26.0902 44.1899 11.8967 35.4324 3.14135L4.32345 34.2578C-4.10854 25.8278 -4.1059 12.162 4.31975 3.73435L35.4362 34.8433ZM7.9167 -7.83329C16.6205 -7.83329 23.6667 -0.787119 23.6667 7.9167H-20.3333C-20.3333 23.5134 -7.68002 36.1667 7.9167 36.1667V-7.83329ZM23.6667 7.9167C23.6667 16.6205 16.6205 23.6667 7.9167 23.6667V-20.3333C-7.68002 -20.3333 -20.3333 -7.68002 -20.3333 7.9167H23.6667ZM7.9167 23.6667C-0.787124 23.6667 -7.83329 16.6205 -7.83329 7.9167H36.1667C36.1667 -7.68001 23.5134 -20.3333 7.9167 -20.3333V23.6667ZM-7.83329 7.9167C-7.83329 -0.787115 -0.78712 -7.83329 7.9167 -7.83329V36.1667C23.5134 36.1667 36.1667 23.5134 36.1667 7.9167H-7.83329Z" fill="black" mask="url(#path-1-inside-1)"/>
</svg>
